<svg width="978" height="703" viewBox="0 0 978 703" fill="none" xmlns="http://www.w3.org/2000/svg">
<path d="M587.379 658V579.875H509.254V130.656H587.379V52.5312H333.473C274.391 52.5312 228.085 54.403 194.557 58.1465C160.865 61.89 134.661 67.7493 115.943 75.7246C97.0632 83.5371 79.7292 95.3372 63.9414 111.125C49.7812 125.285 39.1204 143.107 31.959 164.592C24.6348 185.913 20.9727 208.781 20.9727 233.195C20.9727 253.052 23.5768 271.444 28.7852 288.371C33.8307 305.135 41.0736 320.028 50.5137 333.049C59.791 345.907 71.2656 357.463 84.9375 367.717C98.4466 377.808 113.421 386.353 129.859 393.352C146.298 400.35 164.527 406.128 184.547 410.686C204.404 415.243 224.993 418.579 246.314 420.695C267.473 422.648 290.016 423.625 313.941 423.625H353.004V579.875H255.348V658H587.379ZM353.004 345.5H313.941C235.816 345.5 196.754 309.693 196.754 238.078C196.754 225.708 197.649 214.478 199.439 204.387C201.067 194.296 204.16 184.53 208.717 175.09C213.274 165.65 219.133 157.756 226.295 151.408C233.456 145.061 242.815 140.015 254.371 136.271C265.927 132.528 279.273 130.656 294.41 130.656H353.004V345.5Z" fill="white"/>
<path d="M692.402 35.4609C779.561 35.4609 849.287 58.7031 901.582 105.188C922.998 124.113 938.271 143.205 947.402 162.463C956.699 181.555 961.348 205.627 961.348 234.68C961.348 256.76 953.545 275.603 937.939 291.208C922.5 306.647 903.74 314.367 881.66 314.367C859.58 314.367 840.737 306.647 825.132 291.208C809.692 275.603 801.973 256.76 801.973 234.68C801.973 223.391 804.214 212.766 808.696 202.805C813.179 192.678 819.404 183.879 827.373 176.408C815.42 154.162 799.233 138.391 778.813 129.094C758.56 119.797 733.076 115.148 702.363 115.148C682.275 115.148 663.599 119.216 646.333 127.351C629.233 135.485 614.375 146.857 601.758 161.467C589.307 176.076 578.599 193.342 569.634 213.264C560.669 233.186 553.945 255.1 549.463 279.006C545.146 302.746 542.988 327.814 542.988 354.211C542.988 380.275 545.645 405.344 550.957 429.416C556.27 453.488 563.989 475.402 574.116 495.158C584.243 514.914 596.113 532.18 609.727 546.955C623.34 561.564 638.945 572.937 656.543 581.071C674.307 589.206 692.9 593.273 712.324 593.273C740.547 593.273 766.777 585.72 791.016 570.612C815.42 555.505 835.591 534.338 851.528 507.111C867.632 479.719 877.676 448.674 881.66 413.977L961.348 433.898C957.363 453.322 952.715 471.418 947.402 488.186C942.09 504.787 935.449 521.389 927.48 537.99C919.512 554.426 910.464 569.284 900.337 582.565C890.21 595.847 878.257 608.215 864.478 619.67C850.698 631.125 835.508 640.754 818.906 648.557C802.305 656.193 783.296 662.17 761.88 666.486C740.464 670.803 717.305 672.961 692.402 672.961C662.686 672.961 634.297 669.807 607.236 663.498C580.342 657.355 555.938 648.723 534.023 637.6C512.275 626.477 492.188 613.195 473.76 597.756C455.332 582.316 439.395 565.3 425.947 546.706C412.5 527.946 401.045 508.107 391.582 487.189C382.285 466.105 375.312 444.44 370.664 422.194C366.016 399.782 363.691 377.121 363.691 354.211C363.691 331.301 366.016 308.723 370.664 286.477C375.312 264.064 382.285 242.399 391.582 221.481C401.045 200.397 412.5 180.559 425.947 161.965C439.395 143.205 455.332 126.105 473.76 110.666C492.188 95.2266 512.275 81.9453 534.023 70.8223C555.938 59.6992 580.342 51.0664 607.236 44.9238C634.297 38.6152 662.686 35.4609 692.402 35.4609Z" fill="white"/>
<path d="M849.382 282.687L847.296 285.881L846.829 285.515L849.382 282.687Z" fill="black"/>
<path d="M843.401 278.206L841.062 281.217L840.626 280.814L843.401 278.206Z" fill="black"/>
<path d="M834.423 267.045L831.495 269.477L831.155 268.988L834.423 267.045Z" fill="black"/>
<path d="M838.302 273.009L835.556 275.648L835.183 275.186L838.302 273.009Z" fill="black"/>
<path d="M883.5 197L885.665 172.25H881.335L883.5 197Z" fill="black"/>
<path d="M883.5 273L885.665 297.75H881.335L883.5 273Z" fill="black"/>
<path d="M845.681 231.98L821.164 233.118L821.256 229.56L845.681 231.98Z" fill="black"/>
<path d="M921.349 232.197L945.817 234.131L945.839 230.571L921.349 232.197Z" fill="black"/>
<path d="M837.227 256.269L828.07 262.882L826.488 259.699L837.227 256.269Z" fill="black"/>
<path d="M926.86 207.613L935.395 200.204L937.253 203.232L926.86 207.613Z" fill="black"/>
<path d="M907.909 189.998L911.814 179.351L914.895 181.094L907.909 189.998Z" fill="black"/>
<path d="M859.093 190.191L852.434 181.035L855.577 179.407L859.093 190.191Z" fill="black"/>
<path d="M840.704 207.084L830.395 202.506L832.309 199.514L840.704 207.084Z" fill="black"/>
<path d="M825.482 225.74L821.703 225.386L821.804 224.798L825.482 225.74Z" fill="black"/>
<path d="M826.883 219.9L823.162 219.148L823.324 218.575L826.883 219.9Z" fill="black"/>
<path d="M828.982 214.008L825.353 212.894L825.569 212.339L828.982 214.008Z" fill="black"/>
<path d="M831.528 208.547L827.935 207.318L828.169 206.77L831.528 208.547Z" fill="black"/>
<path d="M858.619 279.959L854.554 290.545L851.499 288.756L858.619 279.959Z" fill="black"/>
<path d="M907.906 280.105L914.914 288.993L911.837 290.743L907.906 280.105Z" fill="black"/>
<path d="M929.643 257.029L940.428 260.312L938.888 263.516L929.643 257.029Z" fill="black"/>
<path d="M825.138 237.212L821.386 237.783L821.343 237.188L825.138 237.212Z" fill="black"/>
<path d="M825.464 242.811L821.816 243.866L821.698 243.282L825.464 242.811Z" fill="black"/>
<path d="M826.502 248.783L822.955 250.141L822.789 249.569L826.502 248.783Z" fill="black"/>
<path d="M828.157 254.372L824.832 256.213L824.588 255.67L828.157 254.372Z" fill="black"/>
<path d="M876.794 293.719L876.532 297.533L875.947 297.446L876.794 293.719Z" fill="black"/>
<path d="M871.01 292.634L870.345 296.398L869.773 296.248L871.01 292.634Z" fill="black"/>
<path d="M865.436 291.21L864.363 294.877L863.81 294.665L865.436 291.21Z" fill="black"/>
<path d="M859.977 288.956L858.652 292.538L858.115 292.287L859.977 288.956Z" fill="black"/>
<path d="M895.759 292.623L896.958 296.251L896.384 296.394L895.759 292.623Z" fill="black"/>
<path d="M900.517 291.169L902.071 294.657L901.514 294.858L900.517 291.169Z" fill="black"/>
<path d="M861.818 180.692L860.043 177.313L860.586 177.076L861.818 180.692Z" fill="black"/>
<path d="M866.56 179.407L865.042 175.903L865.601 175.708L866.56 179.407Z" fill="black"/>
<path d="M876.391 176.783L875.671 173.029L876.259 172.962L876.391 176.783Z" fill="black"/>
<path d="M871.093 178.13L869.988 174.473L870.566 174.344L871.093 178.13Z" fill="black"/>
<path d="M895.216 177.488L895.696 173.695L896.275 173.817L895.216 177.488Z" fill="black"/>
<path d="M905.58 180.968L906.835 177.36L907.377 177.6L905.58 180.968Z" fill="black"/>
<path d="M900.401 178.901L901.214 175.166L901.78 175.339L900.401 178.901Z" fill="black"/>
<path d="M889.658 176.781L889.823 172.961L890.41 173.034L889.658 176.781Z" fill="black"/>
<path d="M905.801 289.287L907.605 292.651L907.064 292.892L905.801 289.287Z" fill="black"/>
<path d="M890.15 293.332L890.853 297.089L890.264 297.153L890.15 293.332Z" fill="black"/>
<path d="M917.665 282.559L920.197 285.407L919.727 285.769L917.665 282.559Z" fill="black"/>
<path d="M923.43 277.846L926.338 280.302L925.924 280.728L923.43 277.846Z" fill="black"/>
<path d="M928.598 272.636L931.728 274.798L931.356 275.262L928.598 272.636Z" fill="black"/>
<path d="M932.652 267.05L935.968 268.908L935.641 269.405L932.652 267.05Z" fill="black"/>
<path d="M940.344 249.158L944.067 249.896L943.908 250.471L940.344 249.158Z" fill="black"/>
<path d="M941.776 237.958L945.567 238.11L945.498 238.702L941.776 237.958Z" fill="black"/>
<path d="M941.424 243.56L945.201 243.924L945.099 244.512L941.424 243.56Z" fill="black"/>
<path d="M938.846 254.518L942.515 255.496L942.319 256.058L938.846 254.518Z" fill="black"/>
<path d="M838.119 197.964L835.135 195.602L835.536 195.163L838.119 197.964Z" fill="black"/>
<path d="M846.015 190.314L843.502 187.449L843.975 187.09L846.015 190.314Z" fill="black"/>
<path d="M842.043 193.643L839.174 191.14L839.596 190.721L842.043 193.643Z" fill="black"/>
<path d="M850.31 187.058L847.913 184.094L848.399 183.755L850.31 187.058Z" fill="black"/>
<path d="M929.26 199.05L931.945 196.349L932.33 196.802L929.26 199.05Z" fill="black"/>
<path d="M921.513 190.252L923.691 187.121L924.148 187.5L921.513 190.252Z" fill="black"/>
<path d="M926.024 194.674L928.547 191.819L928.957 192.249L926.024 194.674Z" fill="black"/>
<path d="M916.396 186.854L918.327 183.563L918.812 183.906L916.396 186.854Z" fill="black"/>
<path d="M939.953 221.045L943.533 219.779L943.685 220.355L939.953 221.045Z" fill="black"/>
<path d="M938.488 215.491L941.941 213.904L942.144 214.464L938.488 215.491Z" fill="black"/>
<path d="M941.037 226.462L944.742 225.635L944.825 226.225L941.037 226.462Z" fill="black"/>
<path d="M936.306 209.648L939.673 207.886L939.904 208.435L936.306 209.648Z" fill="black"/>
</svg>
