<svg width="332" height="187" viewBox="0 0 332 187" fill="none" xmlns="http://www.w3.org/2000/svg">
<path d="M116.074 161.672L113.204 166.238L112.56 165.716L116.074 161.672Z" fill="black"/>
<path d="M107.843 155.267L104.623 159.57L104.023 158.994L107.843 155.267Z" fill="black"/>
<path d="M95.486 139.311L91.4556 142.787L90.9881 142.089L95.486 139.311Z" fill="black"/>
<path d="M100.824 147.837L97.0458 151.61L96.5311 150.949L100.824 147.837Z" fill="black"/>
<path d="M163 39L165.598 3.75H160.402L163 39Z" fill="black"/>
<path d="M163 148L165.598 183.25H160.402L163 148Z" fill="black"/>
<path d="M110.981 89.1828L77.2367 90.8097L77.3631 85.7224L110.981 89.1828Z" fill="black"/>
<path d="M215.128 89.4934L248.804 92.2579L248.834 87.1689L215.128 89.4934Z" fill="black"/>
<path d="M99.3456 123.906L86.7423 133.359L84.5641 128.809L99.3456 123.906Z" fill="black"/>
<path d="M222.712 54.3486L234.46 43.7571L237.017 48.0857L222.712 54.3486Z" fill="black"/>
<path d="M196.629 29.1666L202.004 13.9458L206.245 16.4368L196.629 29.1666Z" fill="black"/>
<path d="M129.44 29.4423L120.276 16.3525L124.601 14.0258L129.44 29.4423Z" fill="black"/>
<path d="M104.131 53.5917L89.9413 47.0473L92.576 42.7699L104.131 53.5917Z" fill="black"/>
<path d="M83.1795 80.2627L77.9791 79.756L78.1177 78.916L83.1795 80.2627Z" fill="black"/>
<path d="M85.1082 71.9129L79.9872 70.8389L80.209 70.0187L85.1082 71.9129Z" fill="black"/>
<path d="M87.9975 63.4908L83.0016 61.8973L83.2991 61.1038L87.9975 63.4908Z" fill="black"/>
<path d="M91.5018 55.6828L86.5561 53.9259L86.8773 53.1426L91.5018 55.6828Z" fill="black"/>
<path d="M128.789 157.773L123.193 172.906L118.989 170.348L128.789 157.773Z" fill="black"/>
<path d="M196.625 157.981L206.27 170.687L202.035 173.188L196.625 157.981Z" fill="black"/>
<path d="M226.543 124.992L241.387 129.686L239.268 134.266L226.543 124.992Z" fill="black"/>
<path d="M82.706 96.6619L77.5418 97.4788L77.4832 96.6286L82.706 96.6619Z" fill="black"/>
<path d="M83.1543 104.666L78.1342 106.175L77.9712 105.34L83.1543 104.666Z" fill="black"/>
<path d="M84.5841 113.204L79.7019 115.146L79.4728 114.328L84.5841 113.204Z" fill="black"/>
<path d="M86.8621 121.193L82.2849 123.826L81.9495 123.049L86.8621 121.193Z" fill="black"/>
<path d="M153.804 177.443L153.443 182.896L152.637 182.771L153.804 177.443Z" fill="black"/>
<path d="M145.843 175.892L144.928 181.273L144.14 181.059L145.843 175.892Z" fill="black"/>
<path d="M138.171 173.857L136.693 179.099L135.932 178.795L138.171 173.857Z" fill="black"/>
<path d="M130.658 170.634L128.834 175.755L128.095 175.396L130.658 170.634Z" fill="black"/>
<path d="M179.906 175.877L181.556 181.063L180.766 181.268L179.906 175.877Z" fill="black"/>
<path d="M186.455 173.797L188.594 178.784L187.827 179.071L186.455 173.797Z" fill="black"/>
<path d="M133.192 15.8621L130.748 11.0317L131.495 10.6928L133.192 15.8621Z" fill="black"/>
<path d="M139.718 14.0258L137.628 9.0169L138.398 8.73777L139.718 14.0258Z" fill="black"/>
<path d="M153.25 10.2744L152.258 4.90822L153.068 4.81218L153.25 10.2744Z" fill="black"/>
<path d="M145.956 12.2005L144.436 6.97162L145.231 6.78781L145.956 12.2005Z" fill="black"/>
<path d="M179.159 11.282L179.819 5.8602L180.617 6.03352L179.159 11.282Z" fill="black"/>
<path d="M193.423 16.2568L195.151 11.0991L195.896 11.443L193.423 16.2568Z" fill="black"/>
<path d="M186.296 13.3016L187.414 7.96281L188.194 8.20973L186.296 13.3016Z" fill="black"/>
<path d="M171.508 10.2713L171.736 4.81091L172.545 4.91434L171.508 10.2713Z" fill="black"/>
<path d="M193.727 171.108L196.211 175.916L195.466 176.262L193.727 171.108Z" fill="black"/>
<path d="M172.186 176.89L173.153 182.261L172.343 182.353L172.186 176.89Z" fill="black"/>
<path d="M210.057 161.489L213.542 165.561L212.894 166.078L210.057 161.489Z" fill="black"/>
<path d="M217.992 154.751L221.994 158.262L221.424 158.871L217.992 154.751Z" fill="black"/>
<path d="M225.105 147.304L229.413 150.394L228.901 151.057L225.105 147.304Z" fill="black"/>
<path d="M230.685 139.318L235.249 141.974L234.799 142.685L230.685 139.318Z" fill="black"/>
<path d="M241.271 113.74L246.396 114.796L246.177 115.617L241.271 113.74Z" fill="black"/>
<path d="M243.242 97.7282L248.461 97.9461L248.365 98.7926L243.242 97.7282Z" fill="black"/>
<path d="M242.757 105.737L247.957 106.258L247.816 107.098L242.757 105.737Z" fill="black"/>
<path d="M239.21 121.402L244.259 122.8L243.99 123.605L239.21 121.402Z" fill="black"/>
<path d="M100.572 40.5539L96.4656 37.1769L97.0173 36.5498L100.572 40.5539Z" fill="black"/>
<path d="M111.44 29.6177L107.982 25.5217L108.632 25.0089L111.44 29.6177Z" fill="black"/>
<path d="M105.973 34.377L102.025 30.7983L102.605 30.1995L105.973 34.377Z" fill="black"/>
<path d="M117.352 24.9639L114.053 20.7266L114.723 20.2413L117.352 24.9639Z" fill="black"/>
<path d="M226.016 42.1072L229.712 38.2451L230.241 38.8934L226.016 42.1072Z" fill="black"/>
<path d="M215.353 29.5288L218.351 25.0529L218.979 25.5951L215.353 29.5288Z" fill="black"/>
<path d="M221.562 35.851L225.035 31.7689L225.599 32.3837L221.562 35.851Z" fill="black"/>
<path d="M208.31 24.6722L210.968 19.9672L211.635 20.4568L208.31 24.6722Z" fill="black"/>
<path d="M240.733 73.5505L245.661 71.74L245.87 72.5639L240.733 73.5505Z" fill="black"/>
<path d="M238.717 65.6103L243.469 63.3418L243.748 64.1425L238.717 65.6103Z" fill="black"/>
<path d="M242.226 81.2949L247.325 80.1118L247.438 80.9559L242.226 81.2949Z" fill="black"/>
<path d="M235.713 57.2576L240.348 54.7381L240.666 55.5229L235.713 57.2576Z" fill="black"/>
<path d="M3.52832 49.7266H20.1299V53.6328H15.2471V76.0938H23.0596C23.4014 76.0938 23.7065 75.9635 23.9751 75.7031C24.2437 75.4346 24.4471 75.0928 24.5854 74.6777C24.7319 74.2627 24.8377 73.8436 24.9028 73.4204C24.9761 72.9972 25.0127 72.5863 25.0127 72.1875V68.2812H29.4072V80H3.52832V76.0938H7.43457V53.6328H3.52832V49.7266ZM51.8809 70.2344C51.9541 71.1784 52.1087 72.0207 52.3447 72.7612C52.5807 73.5018 52.8656 74.1081 53.1992 74.5801C53.541 75.0521 53.9357 75.4427 54.3833 75.752C54.8309 76.0531 55.2907 76.2687 55.7627 76.3989C56.2347 76.521 56.7393 76.582 57.2764 76.582C58.9935 76.582 60.3322 76.2524 61.2925 75.5933C62.2609 74.9259 63.034 73.9006 63.6118 72.5171L66.8589 73.6401C66.5659 74.4295 66.1916 75.1742 65.7358 75.874C65.2882 76.5658 64.7471 77.2046 64.1123 77.7905C63.4775 78.3765 62.7695 78.881 61.9883 79.3042C61.2152 79.7192 60.3403 80.0448 59.3638 80.2808C58.3872 80.5168 57.3577 80.6348 56.2754 80.6348C54.6722 80.6348 53.1545 80.354 51.7222 79.7925C50.298 79.231 49.057 78.4497 47.999 77.4487C46.9492 76.4396 46.1151 75.1986 45.4966 73.7256C44.8862 72.2526 44.5811 70.6494 44.5811 68.916C44.5811 67.1826 44.8862 65.5713 45.4966 64.082C46.1151 62.5928 46.9492 61.3395 47.999 60.3223C49.057 59.2969 50.298 58.4953 51.7222 57.9175C53.1545 57.3397 54.6722 57.0508 56.2754 57.0508C57.8786 57.0508 59.3923 57.3397 60.8164 57.9175C62.2487 58.4953 63.4897 59.2969 64.5396 60.3223C65.5975 61.3395 66.4316 62.5928 67.042 64.082C67.6605 65.5713 67.9697 67.1826 67.9697 68.916L67.6646 70.2344H51.8809ZM51.9663 66.3281H60.5845C60.3729 64.4564 59.9049 63.0933 59.1807 62.2388C58.4564 61.3843 57.4961 60.957 56.2998 60.957C55.7057 60.957 55.1727 61.0547 54.7007 61.25C54.2287 61.4372 53.8055 61.7424 53.4312 62.1655C53.0568 62.5806 52.7435 63.138 52.4912 63.8379C52.2471 64.5296 52.0721 65.3597 51.9663 66.3281ZM89.1006 76.106C89.5645 76.4233 90.2643 76.582 91.2002 76.582C92.0384 76.582 92.7179 76.5332 93.2388 76.4355C93.7677 76.3379 94.1665 76.1792 94.4351 75.9595C94.7036 75.7316 94.8826 75.4834 94.9722 75.2148C95.0617 74.9382 95.1064 74.5801 95.1064 74.1406C95.1064 73.6198 94.9681 73.1722 94.6914 72.7979C94.4147 72.4235 94.0404 72.1224 93.5684 71.8945C93.0964 71.6667 92.5552 71.4673 91.9448 71.2964C91.3345 71.1174 90.6916 70.9505 90.0161 70.7959C89.3407 70.6331 88.6652 70.4582 87.9897 70.271C87.3143 70.0757 86.6714 69.8234 86.061 69.5142C85.4507 69.1968 84.9095 68.8265 84.4375 68.4033C83.9655 67.972 83.5911 67.4146 83.3145 66.731C83.0378 66.0474 82.8994 65.262 82.8994 64.375C82.8994 63.5612 82.9971 62.8206 83.1924 62.1533C83.3877 61.486 83.6481 60.9204 83.9736 60.4565C84.2992 59.9845 84.7101 59.5736 85.2065 59.2236C85.703 58.8737 86.2197 58.5929 86.7568 58.3813C87.3021 58.1698 87.9124 57.9989 88.5879 57.8687C89.2715 57.7384 89.9307 57.653 90.5654 57.6123C91.2002 57.5635 91.8919 57.5391 92.6406 57.5391C94.2682 57.5391 95.6883 57.7466 96.9009 58.1616C98.1216 58.5767 99.0819 59.1341 99.7817 59.834C100.156 60.1514 100.445 60.5379 100.648 60.9937C100.86 61.4412 100.966 61.9173 100.966 62.4219C100.966 63.3659 100.632 64.1715 99.9648 64.8389C99.2975 65.5062 98.4919 65.8398 97.5479 65.8398C96.6038 65.8398 95.7982 65.5062 95.1309 64.8389C94.4635 64.1715 94.1299 63.3659 94.1299 62.4219C94.1299 62.0801 94.1787 61.7505 94.2764 61.4331C93.8125 61.1157 93.1126 60.957 92.1768 60.957C91.0293 60.957 90.1707 61.0954 89.6011 61.3721C89.0396 61.6488 88.7588 62.1615 88.7588 62.9102C88.7588 63.3822 88.8768 63.8013 89.1128 64.1675C89.3488 64.5256 89.6702 64.8226 90.0771 65.0586C90.484 65.2865 90.9561 65.5062 91.4932 65.7178C92.0384 65.9212 92.6162 66.0962 93.2266 66.2427C93.8369 66.381 94.4635 66.5519 95.1064 66.7554C95.7493 66.9588 96.376 67.1663 96.9863 67.3779C97.5967 67.5895 98.1704 67.8703 98.7075 68.2202C99.2528 68.562 99.7288 68.9486 100.136 69.3799C100.543 69.8112 100.864 70.3524 101.1 71.0034C101.336 71.6463 101.454 72.3665 101.454 73.1641C101.454 74.3034 101.263 75.3084 100.88 76.1792C100.506 77.0418 100.001 77.7417 99.3667 78.2788C98.7401 78.8159 97.9588 79.2554 97.0229 79.5972C96.0871 79.9308 95.1146 80.1628 94.1055 80.293C93.0964 80.4232 91.9733 80.4883 90.7363 80.4883C88.238 80.4883 86.2238 80.0122 84.6938 79.0601C83.172 78.1079 82.4111 76.7936 82.4111 75.1172C82.4111 74.1732 82.7448 73.3675 83.4121 72.7002C84.0794 72.0329 84.8851 71.6992 85.8291 71.6992C86.7731 71.6992 87.5788 72.0329 88.2461 72.7002C88.9134 73.3675 89.2471 74.1732 89.2471 75.1172C89.2471 75.459 89.1982 75.7886 89.1006 76.106ZM141.567 80V76.0938H145.474V53.6328H141.567V49.7266H154.263C157.217 49.7266 159.532 49.8201 161.208 50.0073C162.893 50.1945 164.203 50.4875 165.139 50.8862C166.083 51.2769 166.95 51.8669 167.739 52.6562C168.447 53.3643 168.98 54.2554 169.338 55.3296C169.705 56.3957 169.888 57.5391 169.888 58.7598C169.888 59.7526 169.757 60.6722 169.497 61.5186C169.245 62.3568 168.883 63.1014 168.411 63.7524C167.947 64.3953 167.373 64.9731 166.689 65.4858C166.014 65.9904 165.265 66.4176 164.443 66.7676C163.621 67.1175 162.71 67.4064 161.709 67.6343C160.716 67.8621 159.687 68.029 158.621 68.1348C157.563 68.2324 156.436 68.2812 155.239 68.2812H153.286V76.0938H158.169V80H141.567ZM153.286 64.375H155.239C159.146 64.375 161.099 62.5846 161.099 59.0039C161.099 58.3854 161.054 57.8239 160.964 57.3193C160.883 56.8148 160.728 56.3265 160.5 55.8545C160.273 55.3825 159.98 54.9878 159.622 54.6704C159.264 54.353 158.796 54.1007 158.218 53.9136C157.64 53.7264 156.973 53.6328 156.216 53.6328H153.286V64.375ZM191.141 70.2344C191.214 71.1784 191.368 72.0207 191.604 72.7612C191.84 73.5018 192.125 74.1081 192.459 74.5801C192.801 75.0521 193.195 75.4427 193.643 75.752C194.091 76.0531 194.55 76.2687 195.022 76.3989C195.494 76.521 195.999 76.582 196.536 76.582C198.253 76.582 199.592 76.2524 200.552 75.5933C201.521 74.9259 202.294 73.9006 202.872 72.5171L206.119 73.6401C205.826 74.4295 205.451 75.1742 204.996 75.874C204.548 76.5658 204.007 77.2046 203.372 77.7905C202.737 78.3765 202.029 78.881 201.248 79.3042C200.475 79.7192 199.6 80.0448 198.624 80.2808C197.647 80.5168 196.618 80.6348 195.535 80.6348C193.932 80.6348 192.414 80.354 190.982 79.7925C189.558 79.231 188.317 78.4497 187.259 77.4487C186.209 76.4396 185.375 75.1986 184.756 73.7256C184.146 72.2526 183.841 70.6494 183.841 68.916C183.841 67.1826 184.146 65.5713 184.756 64.082C185.375 62.5928 186.209 61.3395 187.259 60.3223C188.317 59.2969 189.558 58.4953 190.982 57.9175C192.414 57.3397 193.932 57.0508 195.535 57.0508C197.138 57.0508 198.652 57.3397 200.076 57.9175C201.508 58.4953 202.75 59.2969 203.799 60.3223C204.857 61.3395 205.691 62.5928 206.302 64.082C206.92 65.5713 207.229 67.1826 207.229 68.916L206.924 70.2344H191.141ZM191.226 66.3281H199.844C199.633 64.4564 199.165 63.0933 198.44 62.2388C197.716 61.3843 196.756 60.957 195.56 60.957C194.965 60.957 194.432 61.0547 193.96 61.25C193.488 61.4372 193.065 61.7424 192.691 62.1655C192.317 62.5806 192.003 63.138 191.751 63.8379C191.507 64.5296 191.332 65.3597 191.226 66.3281ZM228.019 52.6562H230.46V57.5391H237.296V61.4453H230.46V74.1406C230.46 74.694 230.615 75.1579 230.924 75.5322C231.241 75.9066 231.738 76.0938 232.413 76.0938C233.17 76.0938 233.813 75.8455 234.342 75.3491C234.871 74.8446 235.204 74.1162 235.343 73.1641L238.272 73.6523C238.15 74.6045 237.914 75.4875 237.564 76.3013C237.223 77.1069 236.775 77.8271 236.222 78.4619C235.668 79.0885 234.981 79.585 234.159 79.9512C233.345 80.3092 232.438 80.4883 231.437 80.4883C229.003 80.4883 227.091 79.9227 225.699 78.7915C224.316 77.6522 223.624 76.1019 223.624 74.1406V61.4453H221.183V57.5391H221.671C222.924 57.5391 224.031 57.181 224.991 56.4648C225.951 55.7487 226.961 54.4792 228.019 52.6562ZM255.314 54.939C254.557 54.174 254.179 53.2503 254.179 52.168C254.179 51.0856 254.557 50.166 255.314 49.4092C256.079 48.6442 257.003 48.2617 258.085 48.2617C259.167 48.2617 260.087 48.6442 260.844 49.4092C261.609 50.166 261.991 51.0856 261.991 52.168C261.991 53.2503 261.609 54.174 260.844 54.939C260.087 55.6958 259.167 56.0742 258.085 56.0742C257.003 56.0742 256.079 55.6958 255.314 54.939ZM252.226 57.5391H261.503V76.0938H263.944V80H252.226V76.0938H254.667V61.4453H252.226V57.5391ZM284.733 52.6562H287.175V57.5391H294.011V61.4453H287.175V74.1406C287.175 74.694 287.329 75.1579 287.639 75.5322C287.956 75.9066 288.452 76.0938 289.128 76.0938C289.885 76.0938 290.528 75.8455 291.057 75.3491C291.586 74.8446 291.919 74.1162 292.058 73.1641L294.987 73.6523C294.865 74.6045 294.629 75.4875 294.279 76.3013C293.938 77.1069 293.49 77.8271 292.937 78.4619C292.383 79.0885 291.695 79.585 290.874 79.9512C290.06 80.3092 289.152 80.4883 288.151 80.4883C285.718 80.4883 283.806 79.9227 282.414 78.7915C281.031 77.6522 280.339 76.1019 280.339 74.1406V61.4453H277.897V57.5391H278.386C279.639 57.5391 280.746 57.181 281.706 56.4648C282.666 55.7487 283.675 54.4792 284.733 52.6562ZM316.118 76.106C316.582 76.4233 317.282 76.582 318.218 76.582C319.056 76.582 319.736 76.5332 320.256 76.4355C320.785 76.3379 321.184 76.1792 321.453 75.9595C321.721 75.7316 321.9 75.4834 321.99 75.2148C322.079 74.9382 322.124 74.5801 322.124 74.1406C322.124 73.6198 321.986 73.1722 321.709 72.7979C321.432 72.4235 321.058 72.1224 320.586 71.8945C320.114 71.6667 319.573 71.4673 318.962 71.2964C318.352 71.1174 317.709 70.9505 317.034 70.7959C316.358 70.6331 315.683 70.4582 315.007 70.271C314.332 70.0757 313.689 69.8234 313.079 69.5142C312.468 69.1968 311.927 68.8265 311.455 68.4033C310.983 67.972 310.609 67.4146 310.332 66.731C310.055 66.0474 309.917 65.262 309.917 64.375C309.917 63.5612 310.015 62.8206 310.21 62.1533C310.405 61.486 310.666 60.9204 310.991 60.4565C311.317 59.9845 311.728 59.5736 312.224 59.2236C312.721 58.8737 313.237 58.5929 313.774 58.3813C314.32 58.1698 314.93 57.9989 315.605 57.8687C316.289 57.7384 316.948 57.653 317.583 57.6123C318.218 57.5635 318.91 57.5391 319.658 57.5391C321.286 57.5391 322.706 57.7466 323.918 58.1616C325.139 58.5767 326.099 59.1341 326.799 59.834C327.174 60.1514 327.463 60.5379 327.666 60.9937C327.878 61.4412 327.983 61.9173 327.983 62.4219C327.983 63.3659 327.65 64.1715 326.982 64.8389C326.315 65.5062 325.509 65.8398 324.565 65.8398C323.621 65.8398 322.816 65.5062 322.148 64.8389C321.481 64.1715 321.147 63.3659 321.147 62.4219C321.147 62.0801 321.196 61.7505 321.294 61.4331C320.83 61.1157 320.13 60.957 319.194 60.957C318.047 60.957 317.188 61.0954 316.619 61.3721C316.057 61.6488 315.776 62.1615 315.776 62.9102C315.776 63.3822 315.894 63.8013 316.13 64.1675C316.366 64.5256 316.688 64.8226 317.095 65.0586C317.502 65.2865 317.974 65.5062 318.511 65.7178C319.056 65.9212 319.634 66.0962 320.244 66.2427C320.854 66.381 321.481 66.5519 322.124 66.7554C322.767 66.9588 323.394 67.1663 324.004 67.3779C324.614 67.5895 325.188 67.8703 325.725 68.2202C326.27 68.562 326.746 68.9486 327.153 69.3799C327.56 69.8112 327.882 70.3524 328.118 71.0034C328.354 71.6463 328.472 72.3665 328.472 73.1641C328.472 74.3034 328.28 75.3084 327.898 76.1792C327.524 77.0418 327.019 77.7417 326.384 78.2788C325.758 78.8159 324.976 79.2554 324.041 79.5972C323.105 79.9308 322.132 80.1628 321.123 80.293C320.114 80.4232 318.991 80.4883 317.754 80.4883C315.256 80.4883 313.241 80.0122 311.711 79.0601C310.19 78.1079 309.429 76.7936 309.429 75.1172C309.429 74.1732 309.762 73.3675 310.43 72.7002C311.097 72.0329 311.903 71.6992 312.847 71.6992C313.791 71.6992 314.596 72.0329 315.264 72.7002C315.931 73.3675 316.265 74.1732 316.265 75.1172C316.265 75.459 316.216 75.7886 316.118 76.106ZM68.959 94.2383C73.2314 94.2383 76.6494 95.3776 79.2129 97.6562C80.2627 98.584 81.0114 99.5199 81.459 100.464C81.9147 101.4 82.1426 102.58 82.1426 104.004C82.1426 105.086 81.7601 106.01 80.9951 106.775C80.2383 107.532 79.3187 107.91 78.2363 107.91C77.154 107.91 76.2303 107.532 75.4653 106.775C74.7085 106.01 74.3301 105.086 74.3301 104.004C74.3301 103.451 74.4399 102.93 74.6597 102.441C74.8794 101.945 75.1846 101.514 75.5752 101.147C74.9893 100.057 74.1958 99.2839 73.1948 98.8281C72.202 98.3724 70.9528 98.1445 69.4473 98.1445C68.4626 98.1445 67.547 98.3439 66.7007 98.7427C65.8625 99.1414 65.1341 99.6989 64.5156 100.415C63.9053 101.131 63.3804 101.978 62.9409 102.954C62.5015 103.931 62.1719 105.005 61.9521 106.177C61.7406 107.34 61.6348 108.569 61.6348 109.863C61.6348 111.141 61.765 112.37 62.0254 113.55C62.2858 114.73 62.6642 115.804 63.1606 116.772C63.6571 117.741 64.2389 118.587 64.9062 119.312C65.5736 120.028 66.3385 120.585 67.2012 120.984C68.0719 121.383 68.9834 121.582 69.9355 121.582C71.319 121.582 72.6048 121.212 73.793 120.471C74.9893 119.731 75.978 118.693 76.7593 117.358C77.5487 116.016 78.041 114.494 78.2363 112.793L82.1426 113.77C81.9473 114.722 81.7194 115.609 81.459 116.431C81.1986 117.244 80.873 118.058 80.4824 118.872C80.0918 119.678 79.6483 120.406 79.1519 121.057C78.6554 121.708 78.0695 122.314 77.394 122.876C76.7186 123.438 75.974 123.91 75.1602 124.292C74.3464 124.666 73.4146 124.959 72.3647 125.171C71.3149 125.382 70.1797 125.488 68.959 125.488C67.5023 125.488 66.1107 125.334 64.7842 125.024C63.4658 124.723 62.2695 124.3 61.1953 123.755C60.1292 123.21 59.1445 122.559 58.2412 121.802C57.3379 121.045 56.5566 120.211 55.8975 119.299C55.2383 118.38 54.6768 117.407 54.2129 116.382C53.7572 115.348 53.4154 114.286 53.1875 113.196C52.9596 112.097 52.8457 110.986 52.8457 109.863C52.8457 108.74 52.9596 107.633 53.1875 106.543C53.4154 105.444 53.7572 104.382 54.2129 103.357C54.6768 102.323 55.2383 101.351 55.8975 100.439C56.5566 99.5199 57.3379 98.6816 58.2412 97.9248C59.1445 97.168 60.1292 96.5169 61.1953 95.9717C62.2695 95.4264 63.4658 95.0033 64.7842 94.7021C66.1107 94.3929 67.5023 94.2383 68.959 94.2383ZM117.092 110.291V121.094H119.533V125H111.928L110.842 122.461C110.012 123.649 109.047 124.463 107.949 124.902C106.858 125.342 105.332 125.562 103.371 125.562C102.354 125.562 101.406 125.382 100.527 125.024C99.6561 124.674 98.9115 124.194 98.293 123.584C97.6826 122.974 97.2025 122.241 96.8525 121.387C96.5107 120.532 96.3398 119.617 96.3398 118.64C96.3398 116.956 96.999 115.56 98.3174 114.453C99.6357 113.338 101.32 112.781 103.371 112.781C105.023 112.781 106.39 112.939 107.473 113.257C108.555 113.566 109.483 114.062 110.256 114.746V109.57C110.256 108.838 110.154 108.228 109.951 107.739C109.755 107.243 109.458 106.864 109.06 106.604C108.661 106.335 108.213 106.148 107.717 106.042C107.22 105.937 106.626 105.884 105.935 105.884C105.381 105.884 104.881 106.002 104.433 106.238C104.685 106.767 104.812 107.324 104.812 107.91C104.812 108.993 104.429 109.916 103.664 110.681C102.907 111.438 101.988 111.816 100.905 111.816C99.8229 111.816 98.8993 111.438 98.1343 110.681C97.3774 109.916 96.999 108.993 96.999 107.91C96.999 107.357 97.1048 106.836 97.3164 106.348C97.5361 105.859 97.8372 105.432 98.2197 105.066C98.5452 104.724 98.883 104.419 99.2329 104.15C99.5828 103.874 100.022 103.601 100.551 103.333C101.088 103.056 101.67 102.828 102.297 102.649C102.924 102.47 103.672 102.327 104.543 102.222C105.422 102.108 106.382 102.051 107.424 102.051C108.775 102.051 110.044 102.25 111.232 102.649C112.421 103.048 113.446 103.601 114.309 104.309C115.171 105.017 115.851 105.888 116.347 106.921C116.844 107.955 117.092 109.078 117.092 110.291ZM110.256 119.58V117.896C109.751 117.415 109.182 117.013 108.547 116.687C107.92 116.353 107.338 116.187 106.801 116.187C105.646 116.187 104.832 116.382 104.36 116.772C103.888 117.155 103.652 117.778 103.652 118.64C103.652 119.674 103.855 120.435 104.262 120.923C104.669 121.411 105.426 121.655 106.533 121.655C107.159 121.655 107.81 121.456 108.486 121.057C109.169 120.65 109.759 120.158 110.256 119.58ZM141.775 125.562C139.871 125.562 138.255 125.073 136.929 124.097C135.602 123.12 134.613 121.757 133.962 120.007C133.319 118.258 132.998 116.174 132.998 113.757C132.998 111.991 133.226 110.376 133.682 108.911C134.146 107.446 134.788 106.213 135.61 105.212C136.44 104.203 137.437 103.426 138.601 102.881C139.773 102.327 141.055 102.051 142.446 102.051C143.146 102.051 143.805 102.116 144.424 102.246C145.042 102.368 145.567 102.523 145.999 102.71C146.438 102.897 146.853 103.129 147.244 103.406C147.634 103.682 147.948 103.943 148.184 104.187C148.428 104.431 148.664 104.704 148.892 105.005V98.6328H146.45V94.7266H155.728V121.094H158.169V125H150.918L149.441 122.168C149.124 122.607 148.765 123.01 148.367 123.376C146.755 124.833 144.558 125.562 141.775 125.562ZM148.892 109.143C147.964 107.434 146.702 106.58 145.107 106.58C143.496 106.58 142.296 107.21 141.506 108.472C140.725 109.733 140.334 111.523 140.334 113.843C140.334 114.933 140.461 115.942 140.713 116.87C140.973 117.79 141.315 118.555 141.738 119.165C142.17 119.775 142.662 120.251 143.215 120.593C143.769 120.927 144.347 121.094 144.949 121.094C145.763 121.094 146.483 120.87 147.109 120.422C147.744 119.967 148.338 119.295 148.892 118.408V109.143ZM172.391 102.539H179.971L181.509 105.505C182.95 103.202 184.988 102.051 187.625 102.051C189.391 102.051 190.791 102.596 191.824 103.687C192.866 104.769 193.387 106.177 193.387 107.91C193.387 108.993 193.004 109.916 192.239 110.681C191.482 111.438 190.563 111.816 189.48 111.816C188.398 111.816 187.474 111.438 186.709 110.681C185.953 109.916 185.574 108.993 185.574 107.91C185.574 107.471 185.643 107.048 185.782 106.641C185.562 106.51 185.33 106.445 185.086 106.445C184.541 106.445 183.975 106.803 183.389 107.52C182.811 108.228 182.254 109.29 181.717 110.706L181.668 121.094H187.039V125H172.391V121.094H174.832V106.445H172.391V102.539ZM227.359 110.291V121.094H229.801V125H222.196L221.109 122.461C220.279 123.649 219.315 124.463 218.216 124.902C217.126 125.342 215.6 125.562 213.639 125.562C212.621 125.562 211.673 125.382 210.794 125.024C209.924 124.674 209.179 124.194 208.561 123.584C207.95 122.974 207.47 122.241 207.12 121.387C206.778 120.532 206.607 119.617 206.607 118.64C206.607 116.956 207.267 115.56 208.585 114.453C209.903 113.338 211.588 112.781 213.639 112.781C215.291 112.781 216.658 112.939 217.74 113.257C218.823 113.566 219.75 114.062 220.523 114.746V109.57C220.523 108.838 220.422 108.228 220.218 107.739C220.023 107.243 219.726 106.864 219.327 106.604C218.928 106.335 218.481 106.148 217.984 106.042C217.488 105.937 216.894 105.884 216.202 105.884C215.649 105.884 215.148 106.002 214.701 106.238C214.953 106.767 215.079 107.324 215.079 107.91C215.079 108.993 214.697 109.916 213.932 110.681C213.175 111.438 212.255 111.816 211.173 111.816C210.09 111.816 209.167 111.438 208.402 110.681C207.645 109.916 207.267 108.993 207.267 107.91C207.267 107.357 207.372 106.836 207.584 106.348C207.804 105.859 208.105 105.432 208.487 105.066C208.813 104.724 209.151 104.419 209.5 104.15C209.85 103.874 210.29 103.601 210.819 103.333C211.356 103.056 211.938 102.828 212.564 102.649C213.191 102.47 213.94 102.327 214.811 102.222C215.689 102.108 216.65 102.051 217.691 102.051C219.042 102.051 220.312 102.25 221.5 102.649C222.688 103.048 223.714 103.601 224.576 104.309C225.439 105.017 226.118 105.888 226.615 106.921C227.111 107.955 227.359 109.078 227.359 110.291ZM220.523 119.58V117.896C220.019 117.415 219.449 117.013 218.814 116.687C218.188 116.353 217.606 116.187 217.069 116.187C215.913 116.187 215.099 116.382 214.627 116.772C214.155 117.155 213.919 117.778 213.919 118.64C213.919 119.674 214.123 120.435 214.53 120.923C214.937 121.411 215.694 121.655 216.8 121.655C217.427 121.655 218.078 121.456 218.753 121.057C219.437 120.65 220.027 120.158 220.523 119.58ZM260.111 102.051C261.251 102.051 262.248 102.205 263.102 102.515C263.957 102.824 264.656 103.251 265.202 103.796C265.747 104.333 266.186 105.021 266.52 105.859C266.862 106.689 267.098 107.585 267.228 108.545C267.366 109.497 267.436 110.588 267.436 111.816V121.094H269.877V125H258.158V121.094H260.6V111.328C260.6 110.042 260.482 109.041 260.246 108.325C260.018 107.609 259.684 107.117 259.245 106.848C258.813 106.58 258.223 106.445 257.475 106.445C256.791 106.445 256.091 106.734 255.375 107.312C254.659 107.89 253.979 108.695 253.336 109.729L253.275 121.094H255.717V125H243.998V121.094H246.439V106.445H243.998V102.539H251.579L253.288 105.847C253.589 105.302 253.935 104.814 254.325 104.382C254.724 103.943 255.196 103.544 255.741 103.186C256.295 102.82 256.942 102.539 257.682 102.344C258.423 102.148 259.232 102.051 260.111 102.051ZM291.008 121.106C291.472 121.423 292.172 121.582 293.107 121.582C293.946 121.582 294.625 121.533 295.146 121.436C295.675 121.338 296.074 121.179 296.342 120.959C296.611 120.732 296.79 120.483 296.879 120.215C296.969 119.938 297.014 119.58 297.014 119.141C297.014 118.62 296.875 118.172 296.599 117.798C296.322 117.424 295.948 117.122 295.476 116.895C295.004 116.667 294.462 116.467 293.852 116.296C293.242 116.117 292.599 115.951 291.923 115.796C291.248 115.633 290.572 115.458 289.897 115.271C289.222 115.076 288.579 114.823 287.968 114.514C287.358 114.197 286.817 113.826 286.345 113.403C285.873 112.972 285.498 112.415 285.222 111.731C284.945 111.047 284.807 110.262 284.807 109.375C284.807 108.561 284.904 107.821 285.1 107.153C285.295 106.486 285.555 105.92 285.881 105.457C286.206 104.985 286.617 104.574 287.114 104.224C287.61 103.874 288.127 103.593 288.664 103.381C289.209 103.17 289.82 102.999 290.495 102.869C291.179 102.738 291.838 102.653 292.473 102.612C293.107 102.563 293.799 102.539 294.548 102.539C296.175 102.539 297.596 102.747 298.808 103.162C300.029 103.577 300.989 104.134 301.689 104.834C302.063 105.151 302.352 105.538 302.556 105.994C302.767 106.441 302.873 106.917 302.873 107.422C302.873 108.366 302.539 109.172 301.872 109.839C301.205 110.506 300.399 110.84 299.455 110.84C298.511 110.84 297.705 110.506 297.038 109.839C296.371 109.172 296.037 108.366 296.037 107.422C296.037 107.08 296.086 106.75 296.184 106.433C295.72 106.116 295.02 105.957 294.084 105.957C292.937 105.957 292.078 106.095 291.508 106.372C290.947 106.649 290.666 107.161 290.666 107.91C290.666 108.382 290.784 108.801 291.02 109.167C291.256 109.526 291.577 109.823 291.984 110.059C292.391 110.286 292.863 110.506 293.4 110.718C293.946 110.921 294.523 111.096 295.134 111.243C295.744 111.381 296.371 111.552 297.014 111.755C297.657 111.959 298.283 112.166 298.894 112.378C299.504 112.59 300.078 112.87 300.615 113.22C301.16 113.562 301.636 113.949 302.043 114.38C302.45 114.811 302.771 115.352 303.007 116.003C303.243 116.646 303.361 117.367 303.361 118.164C303.361 119.303 303.17 120.308 302.788 121.179C302.413 122.042 301.909 122.742 301.274 123.279C300.647 123.816 299.866 124.255 298.93 124.597C297.994 124.931 297.022 125.163 296.013 125.293C295.004 125.423 293.881 125.488 292.644 125.488C290.145 125.488 288.131 125.012 286.601 124.06C285.079 123.108 284.318 121.794 284.318 120.117C284.318 119.173 284.652 118.368 285.319 117.7C285.987 117.033 286.792 116.699 287.736 116.699C288.68 116.699 289.486 117.033 290.153 117.7C290.821 118.368 291.154 119.173 291.154 120.117C291.154 120.459 291.105 120.789 291.008 121.106Z" fill="black"/>
</svg>
